<svg class="main-svg" xmlns="http://www.w3.org/2000/svg" xmlns:xlink="http://www.w3.org/1999/xlink" width="700" height="500" style="" viewBox="0 0 700 500"><rect x="0" y="0" width="700" height="500" style="fill: rgb(255, 255, 255); fill-opacity: 1;"/><defs id="defs-d8936e"><g class="clips"><clipPath id="clipd8936exyplot" class="plotclip"><rect width="550.181539807524" height="337.6353346456693"/></clipPath><clipPath class="axesclip" id="clipd8936ex"><rect x="95.88145231846019" y="0" width="550.181539807524" height="500"/></clipPath><clipPath class="axesclip" id="clipd8936ey"><rect x="0" y="82.79691601049865" width="700" height="337.6353346456693"/></clipPath><clipPath class="axesclip" id="clipd8936exy"><rect x="95.88145231846019" y="82.79691601049865" width="550.181539807524" height="337.6353346456693"/></clipPath></g><g class="gradients"/></defs><g class="bglayer"/><g class="layer-below"><g class="imagelayer"/><g class="shapelayer"/></g><g class="cartesianlayer"><g class="subplot xy"><g class="layer-subplot"><g class="shapelayer"/><g class="imagelayer"/></g><g class="gridlayer"><g class="x"><path class="xgrid crisp" transform="translate(154.70145231846018,0)" d="M0,82.79691601049865v337.6353346456693" style="stroke: rgb(0, 0, 0); stroke-opacity: 0.1; stroke-width: 0.5px;"/><path class="xgrid crisp" transform="translate(262.8414523184602,0)" d="M0,82.79691601049865v337.6353346456693" style="stroke: rgb(0, 0, 0); stroke-opacity: 0.1; stroke-width: 0.5px;"/><path class="xgrid crisp" transform="translate(370.97145231846014,0)" d="M0,82.79691601049865v337.6353346456693" style="stroke: rgb(0, 0, 0); stroke-opacity: 0.1; stroke-width: 0.5px;"/><path class="xgrid crisp" transform="translate(479.10145231846025,0)" d="M0,82.79691601049865v337.6353346456693" style="stroke: rgb(0, 0, 0); stroke-opacity: 0.1; stroke-width: 0.5px;"/><path class="xgrid crisp" transform="translate(587.2414523184602,0)" d="M0,82.79691601049865v337.6353346456693" style="stroke: rgb(0, 0, 0); stroke-opacity: 0.1; stroke-width: 0.5px;"/></g><g class="y"><path class="ygrid crisp" transform="translate(0,415.68691601049863)" d="M95.88145231846019,0h550.181539807524" style="stroke: rgb(0, 0, 0); stroke-opacity: 0.1; stroke-width: 0.5px;"/><path class="ygrid crisp" transform="translate(0,307.59691601049866)" d="M95.88145231846019,0h550.181539807524" style="stroke: rgb(0, 0, 0); stroke-opacity: 0.1; stroke-width: 0.5px;"/><path class="ygrid crisp" transform="translate(0,199.50691601049863)" d="M95.88145231846019,0h550.181539807524" style="stroke: rgb(0, 0, 0); stroke-opacity: 0.1; stroke-width: 0.5px;"/><path class="ygrid crisp" transform="translate(0,91.42691601049864)" d="M95.88145231846019,0h550.181539807524" style="stroke: rgb(0, 0, 0); stroke-opacity: 0.1; stroke-width: 0.5px;"/></g></g><g class="zerolinelayer"/><path class="xlines-below"/><path class="ylines-below"/><g class="overlines-below"/><g class="xaxislayer-below"/><g class="yaxislayer-below"/><g class="overaxes-below"/><g class="plot" transform="translate(95.88145231846019,82.79691601049865)" clip-path="url('#clipd8936exyplot')"><g class="scatterlayer mlayer"><g class="trace scatter trace26ec1e" style="stroke-miterlimit: 2;"><g class="fills"><g><path class="js-fill" d="M509.81,332.89L509.81,332.89L509.81,115.79L528.41,83.75L529.18,82.06L532.82,71.95L533.25,70.26L534.52,61.83L534.6,60.14L534.03,51.71L533.73,50.02L531.33,41.59L530.68,39.91L525.8,29.79L524.85,28.1L513.17,9.56L469.55,9.56L455.11,33.16L454.28,34.85L450.25,44.97L449.77,46.65L448.27,55.08L448.15,56.77L448.52,65.2L448.78,66.89L450.91,75.32L451.5,77L455.95,87.12L456.82,88.81L466.75,105.67L467.79,107.36L472.91,115.79L509.81,115.79" style="fill: rgb(0, 154, 250); fill-opacity: 0.5; stroke-width: 0;"/></g></g><g class="errorbars"/><g class="lines"><path class="js-line" d="M509.81,115.79L528.41,83.75L529.18,82.06L532.82,71.95L533.25,70.26L534.52,61.83L534.6,60.14L534.03,51.71L533.73,50.02L531.33,41.59L530.68,39.91L525.8,29.79L524.85,28.1L513.17,9.56L469.55,9.56L455.11,33.16L454.28,34.85L450.25,44.97L449.77,46.65L448.27,55.08L448.15,56.77L448.52,65.2L448.78,66.89L450.91,75.32L451.5,77L455.95,87.12L456.82,88.81L466.75,105.67L467.79,107.36L472.91,115.79L509.81,115.79" style="vector-effect: non-scaling-stroke; fill: none; stroke: rgb(0, 0, 0); stroke-opacity: 0.5; stroke-width: 1px; opacity: 1;"/></g><g class="points"/><g class="text"/></g><g class="trace scatter traceb12767" style="stroke-miterlimit: 2;"><g class="fills"><g><path class="js-fill" d="M95.48,332.89L95.48,332.89L95.48,328.08L99.55,321.12L100.15,319.72L101.77,314.15L101.96,312.76L101.84,307.19L101.59,305.79L99.76,300.22L99.11,298.83L94.89,291.86L93.89,290.47L84.86,279.33L32.79,279.33L21.8,293.26L20.9,294.65L17.31,301.61L16.81,303.01L15.65,308.58L15.57,309.97L16.16,315.54L16.52,316.94L19.54,323.9L20.36,325.29L22.17,328.08L95.48,328.08" style="fill: rgb(0, 154, 250); fill-opacity: 0.5; stroke-width: 0;"/></g></g><g class="errorbars"/><g class="lines"><path class="js-line" d="M95.48,328.08L99.55,321.12L100.15,319.72L101.77,314.15L101.96,312.76L101.84,307.19L101.59,305.79L99.76,300.22L99.11,298.83L94.89,291.86L93.89,290.47L84.86,279.33L32.79,279.33L21.8,293.26L20.9,294.65L17.31,301.61L16.81,303.01L15.65,308.58L15.57,309.97L16.16,315.54L16.52,316.94L19.54,323.9L20.36,325.29L22.17,328.08L95.48,328.08" style="vector-effect: non-scaling-stroke; fill: none; stroke: rgb(0, 0, 0); stroke-opacity: 0.5; stroke-width: 1px; opacity: 1;"/></g><g class="points"/><g class="text"/></g><g class="trace scatter trace0d0d5b" style="stroke-miterlimit: 2;"><g class="fills"><g><path class="js-fill" d="M401.71,332.89L401.71,332.89L401.71,224.3L422.16,194.93L422.97,193.3L425.82,185.14L426.13,183.51L426.4,176.98L426.22,175.35L424.57,168.82L423.94,167.19L419.63,159.03L418.58,157.4L410.23,145.97L408.98,144.34L398.35,129.65L397.32,128.02L369.13,128.02L368.1,129.65L358.73,142.71L357.47,144.34L346.81,159.03L345.82,160.66L341.87,168.82L341.32,170.45L340.05,176.98L339.97,178.61L340.62,185.14L341.02,186.77L343.48,193.3L344.29,194.93L350.35,204.72L351.51,206.35L364.74,224.3L401.71,224.3" style="fill: rgb(0, 154, 250); fill-opacity: 0.5; stroke-width: 0;"/></g></g><g class="errorbars"/><g class="lines"><path class="js-line" d="M401.71,224.3L422.16,194.93L422.97,193.3L425.82,185.14L426.13,183.51L426.4,176.98L426.22,175.35L424.57,168.82L423.94,167.19L419.63,159.03L418.58,157.4L410.23,145.97L408.98,144.34L398.35,129.65L397.32,128.02L369.13,128.02L368.1,129.65L358.73,142.71L357.47,144.34L346.81,159.03L345.82,160.66L341.87,168.82L341.32,170.45L340.05,176.98L339.97,178.61L340.62,185.14L341.02,186.77L343.48,193.3L344.29,194.93L350.35,204.72L351.51,206.35L364.74,224.3L401.71,224.3" style="vector-effect: non-scaling-stroke; fill: none; stroke: rgb(0, 0, 0); stroke-opacity: 0.5; stroke-width: 1px; opacity: 1;"/></g><g class="points"/><g class="text"/></g><g class="trace scatter traceaee439" style="stroke-miterlimit: 2;"><g class="fills"><g><path class="js-fill" d="M293.11,332.89L293.11,332.89L293.11,195.27L312.89,164.34L313.72,162.62L316.91,154.02L317.35,152.3L318.34,143.71L318.3,141.99L317.34,135.12L316.91,133.4L313.67,124.8L312.83,123.08L306.83,112.77L305.72,111.05L289.2,85.27L288.28,83.55L261.9,83.55L260.98,85.27L252.55,99.02L251.4,100.74L238.24,121.37L237.35,123.08L233.78,131.68L233.27,133.4L231.88,141.99L231.84,143.71L232.48,150.58L232.84,152.3L235.69,160.9L236.46,162.62L242.14,172.93L243.23,174.65L257.07,195.27L293.11,195.27" style="fill: rgb(0, 154, 250); fill-opacity: 0.5; stroke-width: 0;"/></g></g><g class="errorbars"/><g class="lines"><path class="js-line" d="M293.11,195.27L312.89,164.34L313.72,162.62L316.91,154.02L317.35,152.3L318.34,143.71L318.3,141.99L317.34,135.12L316.91,133.4L313.67,124.8L312.83,123.08L306.83,112.77L305.72,111.05L289.2,85.27L288.28,83.55L261.9,83.55L260.98,85.27L252.55,99.02L251.4,100.74L238.24,121.37L237.35,123.08L233.78,131.68L233.27,133.4L231.88,141.99L231.84,143.71L232.48,150.58L232.84,152.3L235.69,160.9L236.46,162.62L242.14,172.93L243.23,174.65L257.07,195.27L293.11,195.27" style="vector-effect: non-scaling-stroke; fill: none; stroke: rgb(0, 0, 0); stroke-opacity: 0.5; stroke-width: 1px; opacity: 1;"/></g><g class="points"/><g class="text"/></g><g class="trace scatter trace1b1cb8" style="stroke-miterlimit: 2;"><g class="fills"><g><path class="js-fill" d="M201.91,332.89L201.91,332.89L201.91,309.03L207.14,300.81L207.8,299.44L209.93,292.58L210.11,291.21L209.97,285.72L209.72,284.35L207.92,278.87L207.28,277.5L203.14,270.64L202.16,269.27L197.86,263.79L136.05,263.79L128.94,273.38L128.11,274.75L124.94,281.61L124.52,282.98L123.7,288.47L123.71,289.84L124.6,295.32L125.03,296.69L128.29,303.55L129.14,304.92L132.01,309.03L201.91,309.03" style="fill: rgb(0, 154, 250); fill-opacity: 0.5; stroke-width: 0;"/></g></g><g class="errorbars"/><g class="lines"><path class="js-line" d="M201.91,309.03L207.14,300.81L207.8,299.44L209.93,292.58L210.11,291.21L209.97,285.72L209.72,284.35L207.92,278.87L207.28,277.5L203.14,270.64L202.16,269.27L197.86,263.79L136.05,263.79L128.94,273.38L128.11,274.75L124.94,281.61L124.52,282.98L123.7,288.47L123.71,289.84L124.6,295.32L125.03,296.69L128.29,303.55L129.14,304.92L132.01,309.03L201.91,309.03" style="vector-effect: non-scaling-stroke; fill: none; stroke: rgb(0, 0, 0); stroke-opacity: 0.5; stroke-width: 1px; opacity: 1;"/></g><g class="points"/><g class="text"/></g></g></g><g class="overplot"/><path class="xlines-above crisp" d="M94.88145231846019,420.9322506561679H646.0629921259842" style="fill: none; stroke-width: 1px; stroke: rgb(0, 0, 0); stroke-opacity: 1;"/><path class="ylines-above crisp" d="M95.38145231846019,82.79691601049865V420.4322506561679" style="fill: none; stroke-width: 1px; stroke: rgb(0, 0, 0); stroke-opacity: 1;"/><g class="overlines-above"/><g class="xaxislayer-above"><path class="xtick ticks crisp" d="M0,420.4322506561679v-5" transform="translate(154.70145231846018,0)" style="stroke: rgb(0, 0, 0); stroke-opacity: 1; stroke-width: 1px;"/><path class="xtick ticks crisp" d="M0,420.4322506561679v-5" transform="translate(262.8414523184602,0)" style="stroke: rgb(0, 0, 0); stroke-opacity: 1; stroke-width: 1px;"/><path class="xtick ticks crisp" d="M0,420.4322506561679v-5" transform="translate(370.97145231846014,0)" style="stroke: rgb(0, 0, 0); stroke-opacity: 1; stroke-width: 1px;"/><path class="xtick ticks crisp" d="M0,420.4322506561679v-5" transform="translate(479.10145231846025,0)" style="stroke: rgb(0, 0, 0); stroke-opacity: 1; stroke-width: 1px;"/><path class="xtick ticks crisp" d="M0,420.4322506561679v-5" transform="translate(587.2414523184602,0)" style="stroke: rgb(0, 0, 0); stroke-opacity: 1; stroke-width: 1px;"/><g class="xtick"><text text-anchor="middle" x="0" y="434.6322506561679" transform="translate(154.70145231846018,0)" style="font-family: sans-serif; font-size: 11px; fill: rgb(0, 0, 0); fill-opacity: 1; white-space: pre;">Cadzand</text></g><g class="xtick"><text text-anchor="middle" x="0" y="434.6322506561679" transform="translate(262.8414523184602,0)" style="font-family: sans-serif; font-size: 11px; fill: rgb(0, 0, 0); fill-opacity: 1; white-space: pre;">Vlissingen</text></g><g class="xtick"><text text-anchor="middle" x="0" y="434.6322506561679" transform="translate(370.97145231846014,0)" style="font-family: sans-serif; font-size: 11px; fill: rgb(0, 0, 0); fill-opacity: 1; white-space: pre;">Terneuzen</text></g><g class="xtick"><text text-anchor="middle" x="0" y="434.6322506561679" transform="translate(479.10145231846025,0)" style="font-family: sans-serif; font-size: 11px; fill: rgb(0, 0, 0); fill-opacity: 1; white-space: pre;">Hansweert</text></g><g class="xtick"><text text-anchor="middle" x="0" y="434.6322506561679" transform="translate(587.2414523184602,0)" style="font-family: sans-serif; font-size: 11px; fill: rgb(0, 0, 0); fill-opacity: 1; white-space: pre;">Bath</text></g></g><g class="yaxislayer-above"><path class="ytick ticks crisp" d="M95.88145231846019,0h5" transform="translate(0,415.68691601049863)" style="stroke: rgb(0, 0, 0); stroke-opacity: 1; stroke-width: 1px;"/><path class="ytick ticks crisp" d="M95.88145231846019,0h5" transform="translate(0,307.59691601049866)" style="stroke: rgb(0, 0, 0); stroke-opacity: 1; stroke-width: 1px;"/><path class="ytick ticks crisp" d="M95.88145231846019,0h5" transform="translate(0,199.50691601049863)" style="stroke: rgb(0, 0, 0); stroke-opacity: 1; stroke-width: 1px;"/><path class="ytick ticks crisp" d="M95.88145231846019,0h5" transform="translate(0,91.42691601049864)" style="stroke: rgb(0, 0, 0); stroke-opacity: 1; stroke-width: 1px;"/><g class="ytick"><text text-anchor="end" x="92.68145231846019" y="3.8499999999999996" transform="translate(0,415.68691601049863)" style="font-family: sans-serif; font-size: 11px; fill: rgb(0, 0, 0); fill-opacity: 1; white-space: pre;">0.0</text></g><g class="ytick"><text text-anchor="end" x="92.68145231846019" y="3.8499999999999996" transform="translate(0,307.59691601049866)" style="font-family: sans-serif; font-size: 11px; fill: rgb(0, 0, 0); fill-opacity: 1; white-space: pre;">0.5</text></g><g class="ytick"><text text-anchor="end" x="92.68145231846019" y="3.8499999999999996" transform="translate(0,199.50691601049863)" style="font-family: sans-serif; font-size: 11px; fill: rgb(0, 0, 0); fill-opacity: 1; white-space: pre;">1.0</text></g><g class="ytick"><text text-anchor="end" x="92.68145231846019" y="3.8499999999999996" transform="translate(0,91.42691601049864)" style="font-family: sans-serif; font-size: 11px; fill: rgb(0, 0, 0); fill-opacity: 1; white-space: pre;">1.5</text></g></g><g class="overaxes-above"/></g></g><g class="polarlayer"/><g class="ternarylayer"/><g class="geolayer"/><g class="funnelarealayer"/><g class="pielayer"/><g class="treemaplayer"/><g class="sunburstlayer"/><g class="glimages"/><defs id="topdefs-d8936e"><g class="clips"/></defs><g class="layer-above"><g class="imagelayer"/><g class="shapelayer"/></g><g class="infolayer"><g class="g-gtitle"/><g class="g-xtitle"><text class="xtitle" x="370.9722222222222" y="462.640625" text-anchor="middle" style="font-family: sans-serif; font-size: 15px; fill: rgb(0, 0, 0); opacity: 1; font-weight: normal; white-space: pre;">Location</text></g><g class="g-ytitle"><text class="ytitle" transform="rotate(-90,51.875,251.6145833333333)" x="51.875" y="251.6145833333333" text-anchor="middle" style="font-family: sans-serif; font-size: 15px; fill: rgb(0, 0, 0); opacity: 1; font-weight: normal; white-space: pre;">RMSE</text></g><g class="annotation" data-index="0" style="opacity: 1;"><g class="annotation-text-g" transform="rotate(0,370.9722222222223,73)"><g class="cursor-pointer" transform="translate(340,60)"><rect class="bg" x="0.5" y="0.5" width="61" height="25" style="stroke-width: 1px; stroke: rgb(0, 0, 0); stroke-opacity: 0; fill: rgb(0, 0, 0); fill-opacity: 0;"/><text class="annotation-text" text-anchor="middle" x="30.90625" y="20" style="font-family: sans-serif; font-size: 20px; fill: rgb(0, 0, 0); fill-opacity: 1; white-space: pre;">RMSE</text></g></g></g></g></svg>