<svg class="main-svg" xmlns="http://www.w3.org/2000/svg" xmlns:xlink="http://www.w3.org/1999/xlink" width="700" height="500" style="" viewBox="0 0 700 500"><rect x="0" y="0" width="700" height="500" style="fill: rgb(255, 255, 255); fill-opacity: 1;"/><defs id="defs-c6fe76"><g class="clips"><clipPath id="clipc6fe76xyplot" class="plotclip"><rect width="550.181539807524" height="337.6353346456693"/></clipPath><clipPath class="axesclip" id="clipc6fe76x"><rect x="95.88145231846019" y="0" width="550.181539807524" height="500"/></clipPath><clipPath class="axesclip" id="clipc6fe76y"><rect x="0" y="82.79691601049865" width="700" height="337.6353346456693"/></clipPath><clipPath class="axesclip" id="clipc6fe76xy"><rect x="95.88145231846019" y="82.79691601049865" width="550.181539807524" height="337.6353346456693"/></clipPath></g><g class="gradients"/></defs><g class="bglayer"/><g class="layer-below"><g class="imagelayer"/><g class="shapelayer"/></g><g class="cartesianlayer"><g class="subplot xy"><g class="layer-subplot"><g class="shapelayer"/><g class="imagelayer"/></g><g class="gridlayer"><g class="x"><path class="xgrid crisp" transform="translate(154.70145231846018,0)" d="M0,82.79691601049865v337.6353346456693" style="stroke: rgb(0, 0, 0); stroke-opacity: 0.1; stroke-width: 0.5px;"/><path class="xgrid crisp" transform="translate(262.8414523184602,0)" d="M0,82.79691601049865v337.6353346456693" style="stroke: rgb(0, 0, 0); stroke-opacity: 0.1; stroke-width: 0.5px;"/><path class="xgrid crisp" transform="translate(370.97145231846014,0)" d="M0,82.79691601049865v337.6353346456693" style="stroke: rgb(0, 0, 0); stroke-opacity: 0.1; stroke-width: 0.5px;"/><path class="xgrid crisp" transform="translate(479.10145231846025,0)" d="M0,82.79691601049865v337.6353346456693" style="stroke: rgb(0, 0, 0); stroke-opacity: 0.1; stroke-width: 0.5px;"/><path class="xgrid crisp" transform="translate(587.2414523184602,0)" d="M0,82.79691601049865v337.6353346456693" style="stroke: rgb(0, 0, 0); stroke-opacity: 0.1; stroke-width: 0.5px;"/></g><g class="y"><path class="ygrid crisp" transform="translate(0,415.42691601049864)" d="M95.88145231846019,0h550.181539807524" style="stroke: rgb(0, 0, 0); stroke-opacity: 0.1; stroke-width: 0.5px;"/><path class="ygrid crisp" transform="translate(0,306.9469160104986)" d="M95.88145231846019,0h550.181539807524" style="stroke: rgb(0, 0, 0); stroke-opacity: 0.1; stroke-width: 0.5px;"/><path class="ygrid crisp" transform="translate(0,198.47691601049866)" d="M95.88145231846019,0h550.181539807524" style="stroke: rgb(0, 0, 0); stroke-opacity: 0.1; stroke-width: 0.5px;"/><path class="ygrid crisp" transform="translate(0,90.00691601049864)" d="M95.88145231846019,0h550.181539807524" style="stroke: rgb(0, 0, 0); stroke-opacity: 0.1; stroke-width: 0.5px;"/></g></g><g class="zerolinelayer"/><path class="xlines-below"/><path class="ylines-below"/><g class="overlines-below"/><g class="xaxislayer-below"/><g class="yaxislayer-below"/><g class="overaxes-below"/><g class="plot" transform="translate(95.88145231846019,82.79691601049865)" clip-path="url('#clipc6fe76xyplot')"><g class="scatterlayer mlayer"><g class="trace scatter tracec38605" style="stroke-miterlimit: 2;"><g class="fills"><g><path class="js-fill" d="M500.07,332.63L500.07,332.63L500.07,126.36L505.62,114.16L506.56,112.41L515.23,98.47L516.4,96.72L528.65,77.55L529.55,75.8L533.04,67.09L533.51,65.34L534.56,58.37L534.61,56.63L533.98,49.65L533.62,47.91L530.81,39.19L530.06,37.45L524.67,26.99L523.66,25.25L513.95,9.56L468.76,9.56L454.29,33.96L453.45,35.71L450.02,44.42L449.52,46.17L448.14,54.88L448.1,56.63L448.81,63.6L449.2,65.34L451.55,72.32L452.33,74.06L458.15,84.52L459.26,86.26L477.1,114.16L478,115.9L482.64,126.36L500.07,126.36" style="fill: rgb(0, 154, 250); fill-opacity: 0.5; stroke-width: 0;"/></g></g><g class="errorbars"/><g class="lines"><path class="js-line" d="M500.07,126.36L505.62,114.16L506.56,112.41L515.23,98.47L516.4,96.72L528.65,77.55L529.55,75.8L533.04,67.09L533.51,65.34L534.56,58.37L534.61,56.63L533.98,49.65L533.62,47.91L530.81,39.19L530.06,37.45L524.67,26.99L523.66,25.25L513.95,9.56L468.76,9.56L454.29,33.96L453.45,35.71L450.02,44.42L449.52,46.17L448.14,54.88L448.1,56.63L448.81,63.6L449.2,65.34L451.55,72.32L452.33,74.06L458.15,84.52L459.26,86.26L477.1,114.16L478,115.9L482.64,126.36L500.07,126.36" style="vector-effect: non-scaling-stroke; fill: none; stroke: rgb(0, 0, 0); stroke-opacity: 0.5; stroke-width: 1px; opacity: 1;"/></g><g class="points"/><g class="text"/></g><g class="trace scatter trace95944a" style="stroke-miterlimit: 2;"><g class="fills"><g><path class="js-fill" d="M94.3,332.63L94.3,332.63L94.3,328.08L98.97,320.51L99.68,318.99L101.63,312.94L101.88,311.42L101.88,305.36L101.64,303.85L99.74,297.79L99.06,296.28L94.63,288.71L93.58,287.19L71.62,256.9L46.03,256.9L39.11,267.5L37.99,269.02L20.18,293.25L19.35,294.76L16.35,302.33L16.01,303.85L15.62,309.91L15.77,311.42L17.34,317.48L17.97,318.99L22.29,326.57L23.35,328.08L94.3,328.08" style="fill: rgb(0, 154, 250); fill-opacity: 0.5; stroke-width: 0;"/></g></g><g class="errorbars"/><g class="lines"><path class="js-line" d="M94.3,328.08L98.97,320.51L99.68,318.99L101.63,312.94L101.88,311.42L101.88,305.36L101.64,303.85L99.74,297.79L99.06,296.28L94.63,288.71L93.58,287.19L71.62,256.9L46.03,256.9L39.11,267.5L37.99,269.02L20.18,293.25L19.35,294.76L16.35,302.33L16.01,303.85L15.62,309.91L15.77,311.42L17.34,317.48L17.97,318.99L22.29,326.57L23.35,328.08L94.3,328.08" style="vector-effect: non-scaling-stroke; fill: none; stroke: rgb(0, 0, 0); stroke-opacity: 0.5; stroke-width: 1px; opacity: 1;"/></g><g class="points"/><g class="text"/></g><g class="trace scatter trace0a6b48" style="stroke-miterlimit: 2;"><g class="fills"><g><path class="js-fill" d="M407.14,332.63L407.14,332.63L407.14,232.14L420.01,213.44L420.96,211.74L424.7,203.24L425.22,201.54L426.4,194.74L426.48,193.04L425.88,186.25L425.52,184.55L422.6,176.05L421.82,174.35L415.13,162.45L414.07,160.75L398.46,135.25L397.58,133.55L393.6,125.06L372.85,125.06L367.07,136.95L366.13,138.65L355.65,155.65L354.56,157.35L345.46,172.65L344.63,174.35L341.36,182.85L340.92,184.55L339.99,191.35L339.97,193.04L340.8,199.84L341.23,201.54L344.6,210.04L345.49,211.74L351.92,221.94L353.12,223.64L359.31,232.14L407.14,232.14" style="fill: rgb(0, 154, 250); fill-opacity: 0.5; stroke-width: 0;"/></g></g><g class="errorbars"/><g class="lines"><path class="js-line" d="M407.14,232.14L420.01,213.44L420.96,211.74L424.7,203.24L425.22,201.54L426.4,194.74L426.48,193.04L425.88,186.25L425.52,184.55L422.6,176.05L421.82,174.35L415.13,162.45L414.07,160.75L398.46,135.25L397.58,133.55L393.6,125.06L372.85,125.06L367.07,136.95L366.13,138.65L355.65,155.65L354.56,157.35L345.46,172.65L344.63,174.35L341.36,182.85L340.92,184.55L339.99,191.35L339.97,193.04L340.8,199.84L341.23,201.54L344.6,210.04L345.49,211.74L351.92,221.94L353.12,223.64L359.31,232.14L407.14,232.14" style="vector-effect: non-scaling-stroke; fill: none; stroke: rgb(0, 0, 0); stroke-opacity: 0.5; stroke-width: 1px; opacity: 1;"/></g><g class="points"/><g class="text"/></g><g class="trace scatter traced99b04" style="stroke-miterlimit: 2;"><g class="fills"><g><path class="js-fill" d="M292.88,332.63L292.88,332.63L292.88,193.61L313.93,159.45L314.72,157.65L317.56,148.66L317.89,146.86L318.32,139.67L318.2,137.88L316.86,130.68L316.32,128.89L312.5,119.9L311.55,118.1L303.84,105.51L302.66,103.72L290.46,83.94L289.52,82.14L283.97,69.56L283.32,67.76L282.72,65.96L267.47,65.96L262.44,78.55L261.57,80.34L254.5,92.93L253.37,94.73L236.79,121.7L235.95,123.49L232.86,132.48L232.48,134.28L231.84,141.47L231.9,143.27L233.04,150.46L233.53,152.26L237.1,161.25L238.01,163.05L244.37,173.83L245.54,175.63L257.3,193.61L292.88,193.61" style="fill: rgb(0, 154, 250); fill-opacity: 0.5; stroke-width: 0;"/></g></g><g class="errorbars"/><g class="lines"><path class="js-line" d="M292.88,193.61L313.93,159.45L314.72,157.65L317.56,148.66L317.89,146.86L318.32,139.67L318.2,137.88L316.86,130.68L316.32,128.89L312.5,119.9L311.55,118.1L303.84,105.51L302.66,103.72L290.46,83.94L289.52,82.14L283.97,69.56L283.32,67.76L282.72,65.96L267.47,65.96L262.44,78.55L261.57,80.34L254.5,92.93L253.37,94.73L236.79,121.7L235.95,123.49L232.86,132.48L232.48,134.28L231.84,141.47L231.9,143.27L233.04,150.46L233.53,152.26L237.1,161.25L238.01,163.05L244.37,173.83L245.54,175.63L257.3,193.61L292.88,193.61" style="vector-effect: non-scaling-stroke; fill: none; stroke: rgb(0, 0, 0); stroke-opacity: 0.5; stroke-width: 1px; opacity: 1;"/></g><g class="points"/><g class="text"/></g><g class="trace scatter traceb1d047" style="stroke-miterlimit: 2;"><g class="fills"><g><path class="js-fill" d="M204.55,332.63L204.55,332.63L204.55,306.24L208.27,299.21L208.8,297.81L210.08,292.18L210.19,290.78L209.75,285.16L209.43,283.75L206.65,276.73L205.88,275.32L200.21,266.89L199.12,265.48L192.29,257.05L141.62,257.05L129.74,272.51L128.86,273.91L125.38,280.94L124.89,282.35L123.77,287.97L123.7,289.37L124.31,295L124.67,296.4L127.68,303.43L128.49,304.83L129.37,306.24L204.55,306.24" style="fill: rgb(0, 154, 250); fill-opacity: 0.5; stroke-width: 0;"/></g></g><g class="errorbars"/><g class="lines"><path class="js-line" d="M204.55,306.24L208.27,299.21L208.8,297.81L210.08,292.18L210.19,290.78L209.75,285.16L209.43,283.75L206.65,276.73L205.88,275.32L200.21,266.89L199.12,265.48L192.29,257.05L141.62,257.05L129.74,272.51L128.86,273.91L125.38,280.94L124.89,282.35L123.77,287.97L123.7,289.37L124.31,295L124.67,296.4L127.68,303.43L128.49,304.83L129.37,306.24L204.55,306.24" style="vector-effect: non-scaling-stroke; fill: none; stroke: rgb(0, 0, 0); stroke-opacity: 0.5; stroke-width: 1px; opacity: 1;"/></g><g class="points"/><g class="text"/></g></g></g><g class="overplot"/><path class="xlines-above crisp" d="M94.88145231846019,420.9322506561679H646.0629921259842" style="fill: none; stroke-width: 1px; stroke: rgb(0, 0, 0); stroke-opacity: 1;"/><path class="ylines-above crisp" d="M95.38145231846019,82.79691601049865V420.4322506561679" style="fill: none; stroke-width: 1px; stroke: rgb(0, 0, 0); stroke-opacity: 1;"/><g class="overlines-above"/><g class="xaxislayer-above"><path class="xtick ticks crisp" d="M0,420.4322506561679v-5" transform="translate(154.70145231846018,0)" style="stroke: rgb(0, 0, 0); stroke-opacity: 1; stroke-width: 1px;"/><path class="xtick ticks crisp" d="M0,420.4322506561679v-5" transform="translate(262.8414523184602,0)" style="stroke: rgb(0, 0, 0); stroke-opacity: 1; stroke-width: 1px;"/><path class="xtick ticks crisp" d="M0,420.4322506561679v-5" transform="translate(370.97145231846014,0)" style="stroke: rgb(0, 0, 0); stroke-opacity: 1; stroke-width: 1px;"/><path class="xtick ticks crisp" d="M0,420.4322506561679v-5" transform="translate(479.10145231846025,0)" style="stroke: rgb(0, 0, 0); stroke-opacity: 1; stroke-width: 1px;"/><path class="xtick ticks crisp" d="M0,420.4322506561679v-5" transform="translate(587.2414523184602,0)" style="stroke: rgb(0, 0, 0); stroke-opacity: 1; stroke-width: 1px;"/><g class="xtick"><text text-anchor="middle" x="0" y="434.6322506561679" transform="translate(154.70145231846018,0)" style="font-family: sans-serif; font-size: 11px; fill: rgb(0, 0, 0); fill-opacity: 1; white-space: pre;">Cadzand</text></g><g class="xtick"><text text-anchor="middle" x="0" y="434.6322506561679" transform="translate(262.8414523184602,0)" style="font-family: sans-serif; font-size: 11px; fill: rgb(0, 0, 0); fill-opacity: 1; white-space: pre;">Vlissingen</text></g><g class="xtick"><text text-anchor="middle" x="0" y="434.6322506561679" transform="translate(370.97145231846014,0)" style="font-family: sans-serif; font-size: 11px; fill: rgb(0, 0, 0); fill-opacity: 1; white-space: pre;">Terneuzen</text></g><g class="xtick"><text text-anchor="middle" x="0" y="434.6322506561679" transform="translate(479.10145231846025,0)" style="font-family: sans-serif; font-size: 11px; fill: rgb(0, 0, 0); fill-opacity: 1; white-space: pre;">Hansweert</text></g><g class="xtick"><text text-anchor="middle" x="0" y="434.6322506561679" transform="translate(587.2414523184602,0)" style="font-family: sans-serif; font-size: 11px; fill: rgb(0, 0, 0); fill-opacity: 1; white-space: pre;">Bath</text></g></g><g class="yaxislayer-above"><path class="ytick ticks crisp" d="M95.88145231846019,0h5" transform="translate(0,415.42691601049864)" style="stroke: rgb(0, 0, 0); stroke-opacity: 1; stroke-width: 1px;"/><path class="ytick ticks crisp" d="M95.88145231846019,0h5" transform="translate(0,306.9469160104986)" style="stroke: rgb(0, 0, 0); stroke-opacity: 1; stroke-width: 1px;"/><path class="ytick ticks crisp" d="M95.88145231846019,0h5" transform="translate(0,198.47691601049866)" style="stroke: rgb(0, 0, 0); stroke-opacity: 1; stroke-width: 1px;"/><path class="ytick ticks crisp" d="M95.88145231846019,0h5" transform="translate(0,90.00691601049864)" style="stroke: rgb(0, 0, 0); stroke-opacity: 1; stroke-width: 1px;"/><g class="ytick"><text text-anchor="end" x="92.68145231846019" y="3.8499999999999996" transform="translate(0,415.42691601049864)" style="font-family: sans-serif; font-size: 11px; fill: rgb(0, 0, 0); fill-opacity: 1; white-space: pre;">0.0</text></g><g class="ytick"><text text-anchor="end" x="92.68145231846019" y="3.8499999999999996" transform="translate(0,306.9469160104986)" style="font-family: sans-serif; font-size: 11px; fill: rgb(0, 0, 0); fill-opacity: 1; white-space: pre;">0.5</text></g><g class="ytick"><text text-anchor="end" x="92.68145231846019" y="3.8499999999999996" transform="translate(0,198.47691601049866)" style="font-family: sans-serif; font-size: 11px; fill: rgb(0, 0, 0); fill-opacity: 1; white-space: pre;">1.0</text></g><g class="ytick"><text text-anchor="end" x="92.68145231846019" y="3.8499999999999996" transform="translate(0,90.00691601049864)" style="font-family: sans-serif; font-size: 11px; fill: rgb(0, 0, 0); fill-opacity: 1; white-space: pre;">1.5</text></g></g><g class="overaxes-above"/></g></g><g class="polarlayer"/><g class="ternarylayer"/><g class="geolayer"/><g class="funnelarealayer"/><g class="pielayer"/><g class="treemaplayer"/><g class="sunburstlayer"/><g class="glimages"/><defs id="topdefs-c6fe76"><g class="clips"/></defs><g class="layer-above"><g class="imagelayer"/><g class="shapelayer"/></g><g class="infolayer"><g class="g-gtitle"/><g class="g-xtitle"><text class="xtitle" x="370.9722222222222" y="462.640625" text-anchor="middle" style="font-family: sans-serif; font-size: 15px; fill: rgb(0, 0, 0); opacity: 1; font-weight: normal; white-space: pre;">Location</text></g><g class="g-ytitle"><text class="ytitle" transform="rotate(-90,51.875,251.6145833333333)" x="51.875" y="251.6145833333333" text-anchor="middle" style="font-family: sans-serif; font-size: 15px; fill: rgb(0, 0, 0); opacity: 1; font-weight: normal; white-space: pre;">RMSE</text></g><g class="annotation" data-index="0" style="opacity: 1;"><g class="annotation-text-g" transform="rotate(0,370.9722222222223,73)"><g class="cursor-pointer" transform="translate(340,60)"><rect class="bg" x="0.5" y="0.5" width="61" height="25" style="stroke-width: 1px; stroke: rgb(0, 0, 0); stroke-opacity: 0; fill: rgb(0, 0, 0); fill-opacity: 0;"/><text class="annotation-text" text-anchor="middle" x="30.90625" y="20" style="font-family: sans-serif; font-size: 20px; fill: rgb(0, 0, 0); fill-opacity: 1; white-space: pre;">RMSE</text></g></g></g></g></svg>