<svg class="main-svg" xmlns="http://www.w3.org/2000/svg" xmlns:xlink="http://www.w3.org/1999/xlink" width="700" height="500" style="" viewBox="0 0 700 500"><rect x="0" y="0" width="700" height="500" style="fill: rgb(255, 255, 255); fill-opacity: 1;"/><defs id="defs-927758"><g class="clips"><clipPath id="clip927758xyplot" class="plotclip"><rect width="550.181539807524" height="337.6353346456693"/></clipPath><clipPath class="axesclip" id="clip927758x"><rect x="95.88145231846019" y="0" width="550.181539807524" height="500"/></clipPath><clipPath class="axesclip" id="clip927758y"><rect x="0" y="82.79691601049865" width="700" height="337.6353346456693"/></clipPath><clipPath class="axesclip" id="clip927758xy"><rect x="95.88145231846019" y="82.79691601049865" width="550.181539807524" height="337.6353346456693"/></clipPath></g><g class="gradients"/></defs><g class="bglayer"/><g class="layer-below"><g class="imagelayer"/><g class="shapelayer"/></g><g class="cartesianlayer"><g class="subplot xy"><g class="layer-subplot"><g class="shapelayer"/><g class="imagelayer"/></g><g class="gridlayer"><g class="x"><path class="xgrid crisp" transform="translate(154.70145231846018,0)" d="M0,82.79691601049865v337.6353346456693" style="stroke: rgb(0, 0, 0); stroke-opacity: 0.1; stroke-width: 0.5px;"/><path class="xgrid crisp" transform="translate(262.8414523184602,0)" d="M0,82.79691601049865v337.6353346456693" style="stroke: rgb(0, 0, 0); stroke-opacity: 0.1; stroke-width: 0.5px;"/><path class="xgrid crisp" transform="translate(370.97145231846014,0)" d="M0,82.79691601049865v337.6353346456693" style="stroke: rgb(0, 0, 0); stroke-opacity: 0.1; stroke-width: 0.5px;"/><path class="xgrid crisp" transform="translate(479.10145231846025,0)" d="M0,82.79691601049865v337.6353346456693" style="stroke: rgb(0, 0, 0); stroke-opacity: 0.1; stroke-width: 0.5px;"/><path class="xgrid crisp" transform="translate(587.2414523184602,0)" d="M0,82.79691601049865v337.6353346456693" style="stroke: rgb(0, 0, 0); stroke-opacity: 0.1; stroke-width: 0.5px;"/></g><g class="y"><path class="ygrid crisp" transform="translate(0,379.35691601049865)" d="M95.88145231846019,0h550.181539807524" style="stroke: rgb(0, 0, 0); stroke-opacity: 0.1; stroke-width: 0.5px;"/><path class="ygrid crisp" transform="translate(0,333.5869160104986)" d="M95.88145231846019,0h550.181539807524" style="stroke: rgb(0, 0, 0); stroke-opacity: 0.1; stroke-width: 0.5px;"/><path class="ygrid crisp" transform="translate(0,287.81691601049863)" d="M95.88145231846019,0h550.181539807524" style="stroke: rgb(0, 0, 0); stroke-opacity: 0.1; stroke-width: 0.5px;"/><path class="ygrid crisp" transform="translate(0,242.04691601049865)" d="M95.88145231846019,0h550.181539807524" style="stroke: rgb(0, 0, 0); stroke-opacity: 0.1; stroke-width: 0.5px;"/><path class="ygrid crisp" transform="translate(0,196.26691601049865)" d="M95.88145231846019,0h550.181539807524" style="stroke: rgb(0, 0, 0); stroke-opacity: 0.1; stroke-width: 0.5px;"/><path class="ygrid crisp" transform="translate(0,150.49691601049864)" d="M95.88145231846019,0h550.181539807524" style="stroke: rgb(0, 0, 0); stroke-opacity: 0.1; stroke-width: 0.5px;"/><path class="ygrid crisp" transform="translate(0,104.72691601049866)" d="M95.88145231846019,0h550.181539807524" style="stroke: rgb(0, 0, 0); stroke-opacity: 0.1; stroke-width: 0.5px;"/></g></g><g class="zerolinelayer"/><path class="xlines-below"/><path class="ylines-below"/><g class="overlines-below"/><g class="xaxislayer-below"/><g class="yaxislayer-below"/><g class="overaxes-below"/><g class="plot" transform="translate(95.88145231846019,82.79691601049865)" clip-path="url('#clip927758xyplot')"><g class="scatterlayer mlayer"><g class="trace scatter trace63941c" style="stroke-miterlimit: 2;"><g class="fills"><g><path class="js-fill" d="M522.52,342.33L522.52,342.33L522.52,277.32L529.25,269.16L530.35,267.53L533.56,261L534.04,259.37L534.61,254.48L534.52,252.84L533.4,247.95L532.77,246.32L529.16,239.79L528.03,238.16L518.8,226.73L517.42,225.1L507.4,212.04L506.35,210.41L501.16,200.62L500.49,198.99L497.38,189.19L497.01,187.56L495.05,174.51L494.91,172.87L493.84,150.03L493.78,148.39L493.52,141.87L489.19,141.87L486.89,181.03L486.64,182.67L483.97,194.09L483.44,195.72L479.2,205.52L478.31,207.15L471.85,216.94L470.61,218.57L451.55,243.05L450.69,244.68L448.43,251.21L448.2,252.84L448.34,257.74L448.68,259.37L450.51,264.27L451.38,265.9L455.94,272.43L457.3,274.06L460.19,277.32L522.52,277.32" style="fill: rgb(0, 154, 250); fill-opacity: 0.5; stroke-width: 0;"/></g></g><g class="errorbars"/><g class="lines"><path class="js-line" d="M522.52,277.32L529.25,269.16L530.35,267.53L533.56,261L534.04,259.37L534.61,254.48L534.52,252.84L533.4,247.95L532.77,246.32L529.16,239.79L528.03,238.16L518.8,226.73L517.42,225.1L507.4,212.04L506.35,210.41L501.16,200.62L500.49,198.99L497.38,189.19L497.01,187.56L495.05,174.51L494.91,172.87L493.84,150.03L493.78,148.39L493.52,141.87L489.19,141.87L486.89,181.03L486.64,182.67L483.97,194.09L483.44,195.72L479.2,205.52L478.31,207.15L471.85,216.94L470.61,218.57L451.55,243.05L450.69,244.68L448.43,251.21L448.2,252.84L448.34,257.74L448.68,259.37L450.51,264.27L451.38,265.9L455.94,272.43L457.3,274.06L460.19,277.32L522.52,277.32" style="vector-effect: non-scaling-stroke; fill: none; stroke: rgb(0, 0, 0); stroke-opacity: 0.5; stroke-width: 1px; opacity: 1;"/></g><g class="points"/><g class="text"/></g><g class="trace scatter trace9a4f41" style="stroke-miterlimit: 2;"><g class="fills"><g><path class="js-fill" d="M88.61,342.33L88.61,342.33L88.61,328.08L96.24,318.65L97.47,316.77L101.03,309.23L101.54,307.34L102.08,301.69L101.93,299.8L100.57,294.15L99.84,292.26L95.76,284.72L94.52,282.84L73.69,252.68L72.72,250.79L68.02,239.48L67.4,237.6L63.93,224.4L63.54,222.52L60.85,205.55L60.65,203.67L59.69,186.7L59.67,184.82L60.38,164.08L60.49,162.2L61.28,141.46L56.37,141.46L57.16,162.2L57.27,164.08L57.96,186.7L57.93,188.59L56.79,205.55L56.57,207.44L53.72,224.4L53.3,226.29L49.63,239.48L48.96,241.37L43.96,252.68L42.94,254.56L35.66,265.87L34.29,267.76L19.65,288.49L18.67,290.38L16.02,297.92L15.72,299.8L15.77,305.46L16.11,307.34L18.1,313L19.07,314.88L24.21,322.42L25.75,324.31L29.04,328.08L88.61,328.08" style="fill: rgb(0, 154, 250); fill-opacity: 0.5; stroke-width: 0;"/></g></g><g class="errorbars"/><g class="lines"><path class="js-line" d="M88.61,328.08L96.24,318.65L97.47,316.77L101.03,309.23L101.54,307.34L102.08,301.69L101.93,299.8L100.57,294.15L99.84,292.26L95.76,284.72L94.52,282.84L73.69,252.68L72.72,250.79L68.02,239.48L67.4,237.6L63.93,224.4L63.54,222.52L60.85,205.55L60.65,203.67L59.69,186.7L59.67,184.82L60.38,164.08L60.49,162.2L61.28,141.46L56.37,141.46L57.16,162.2L57.27,164.08L57.96,186.7L57.93,188.59L56.79,205.55L56.57,207.44L53.72,224.4L53.3,226.29L49.63,239.48L48.96,241.37L43.96,252.68L42.94,254.56L35.66,265.87L34.29,267.76L19.65,288.49L18.67,290.38L16.02,297.92L15.72,299.8L15.77,305.46L16.11,307.34L18.1,313L19.07,314.88L24.21,322.42L25.75,324.31L29.04,328.08L88.61,328.08" style="vector-effect: non-scaling-stroke; fill: none; stroke: rgb(0, 0, 0); stroke-opacity: 0.5; stroke-width: 1px; opacity: 1;"/></g><g class="points"/><g class="text"/></g><g class="trace scatter traced9ccad" style="stroke-miterlimit: 2;"><g class="fills"><g><path class="js-fill" d="M398.71,342.33L398.71,342.33L398.71,299.94L409.89,283.85L411.04,282.24L420.4,267.75L421.24,266.15L424.61,258.1L425.09,256.49L426.42,248.45L426.48,246.84L425.75,238.79L425.43,237.18L422.49,227.53L421.87,225.92L414.58,209.83L413.8,208.22L398.05,174.43L397.36,172.82L396.03,169.6L370.42,169.6L360.44,192.13L359.68,193.74L343.37,229.14L342.82,230.75L340.43,240.4L340.22,242.01L340.15,250.06L340.34,251.66L342.38,259.71L342.99,261.32L346.95,269.36L347.89,270.97L356.56,283.85L357.71,285.45L367.73,299.94L398.71,299.94" style="fill: rgb(0, 154, 250); fill-opacity: 0.5; stroke-width: 0;"/></g></g><g class="errorbars"/><g class="lines"><path class="js-line" d="M398.71,299.94L409.89,283.85L411.04,282.24L420.4,267.75L421.24,266.15L424.61,258.1L425.09,256.49L426.42,248.45L426.48,246.84L425.75,238.79L425.43,237.18L422.49,227.53L421.87,225.92L414.58,209.83L413.8,208.22L398.05,174.43L397.36,172.82L396.03,169.6L370.42,169.6L360.44,192.13L359.68,193.74L343.37,229.14L342.82,230.75L340.43,240.4L340.22,242.01L340.15,250.06L340.34,251.66L342.38,259.71L342.99,261.32L346.95,269.36L347.89,270.97L356.56,283.85L357.71,285.45L367.73,299.94L398.71,299.94" style="vector-effect: non-scaling-stroke; fill: none; stroke: rgb(0, 0, 0); stroke-opacity: 0.5; stroke-width: 1px; opacity: 1;"/></g><g class="points"/><g class="text"/></g><g class="trace scatter tracebf17c5" style="stroke-miterlimit: 2;"><g class="fills"><g><path class="js-fill" d="M283.57,342.33L283.57,342.33L283.57,255.09L286.03,235.09L286.23,233.09L288.38,219.09L288.83,217.09L292.5,205.09L293.24,203.09L302.65,177.09L303.13,175.09L305.14,163.09L305.37,161.09L308.12,143.09L308.61,141.09L313.04,127.09L313.72,125.09L317.17,113.09L317.56,111.09L318.34,103.09L318.34,101.09L317.51,93.09L317.1,91.09L313.89,81.09L313.03,79.09L307.73,69.09L306.5,67.09L292.85,47.09L291.52,45.09L258.66,45.09L257.33,47.09L240.14,73.09L239.08,75.09L234.78,85.09L234.14,87.09L232.34,95.09L232.1,97.09L231.92,105.09L232.07,107.09L233.97,117.09L234.53,119.09L242.91,147.09L243.26,149.09L248.07,179.09L248.65,181.09L253.78,195.09L254.58,197.09L260.3,213.09L260.85,215.09L263.22,227.09L263.48,229.09L266.61,255.09L283.57,255.09" style="fill: rgb(0, 154, 250); fill-opacity: 0.5; stroke-width: 0;"/></g></g><g class="errorbars"/><g class="lines"><path class="js-line" d="M283.57,255.09L286.03,235.09L286.23,233.09L288.38,219.09L288.83,217.09L292.5,205.09L293.24,203.09L302.65,177.09L303.13,175.09L305.14,163.09L305.37,161.09L308.12,143.09L308.61,141.09L313.04,127.09L313.72,125.09L317.17,113.09L317.56,111.09L318.34,103.09L318.34,101.09L317.51,93.09L317.1,91.09L313.89,81.09L313.03,79.09L307.73,69.09L306.5,67.09L292.85,47.09L291.52,45.09L258.66,45.09L257.33,47.09L240.14,73.09L239.08,75.09L234.78,85.09L234.14,87.09L232.34,95.09L232.1,97.09L231.92,105.09L232.07,107.09L233.97,117.09L234.53,119.09L242.91,147.09L243.26,149.09L248.07,179.09L248.65,181.09L253.78,195.09L254.58,197.09L260.3,213.09L260.85,215.09L263.22,227.09L263.48,229.09L266.61,255.09L283.57,255.09" style="vector-effect: non-scaling-stroke; fill: none; stroke: rgb(0, 0, 0); stroke-opacity: 0.5; stroke-width: 1px; opacity: 1;"/></g><g class="points"/><g class="text"/></g><g class="trace scatter trace5f574d" style="stroke-miterlimit: 2;"><g class="fills"><g><path class="js-fill" d="M175.47,342.33L175.47,342.33L175.47,249.43L182.26,219.18L182.77,217.02L186.53,204.05L187.31,201.89L193.89,186.76L194.93,184.6L203.56,165.15L204.34,162.99L207.92,150.02L208.35,147.86L209.95,134.9L210.07,132.74L210.01,119.77L209.87,117.61L208.05,104.64L207.55,102.48L203.99,91.68L203.05,89.51L197.42,78.71L196.16,76.55L186.55,59.26L185.58,57.1L182.56,48.45L182,46.29L180.15,35.49L179.9,33.33L176.71,11.72L176.23,9.56L157.69,9.56L157.21,11.72L154.76,26.84L154.51,29.01L151.91,46.29L151.36,48.45L148.33,57.1L147.37,59.26L140.32,72.23L139.03,74.39L130.86,89.51L129.93,91.68L126.37,102.48L125.87,104.64L124.23,115.45L124.04,117.61L123.76,130.58L123.84,132.74L125.19,145.7L125.57,147.86L128.85,160.83L129.58,162.99L134.88,175.96L135.89,178.12L147.38,204.05L148.12,206.21L151.65,219.18L152.13,221.34L158.45,249.43L175.47,249.43" style="fill: rgb(0, 154, 250); fill-opacity: 0.5; stroke-width: 0;"/></g></g><g class="errorbars"/><g class="lines"><path class="js-line" d="M175.47,249.43L182.26,219.18L182.77,217.02L186.53,204.05L187.31,201.89L193.89,186.76L194.93,184.6L203.56,165.15L204.34,162.99L207.92,150.02L208.35,147.86L209.95,134.9L210.07,132.74L210.01,119.77L209.87,117.61L208.05,104.64L207.55,102.48L203.99,91.68L203.05,89.51L197.42,78.71L196.16,76.55L186.55,59.26L185.58,57.1L182.56,48.45L182,46.29L180.15,35.49L179.9,33.33L176.71,11.72L176.23,9.56L157.69,9.56L157.21,11.72L154.76,26.84L154.51,29.01L151.91,46.29L151.36,48.45L148.33,57.1L147.37,59.26L140.32,72.23L139.03,74.39L130.86,89.51L129.93,91.68L126.37,102.48L125.87,104.64L124.23,115.45L124.04,117.61L123.76,130.58L123.84,132.74L125.19,145.7L125.57,147.86L128.85,160.83L129.58,162.99L134.88,175.96L135.89,178.12L147.38,204.05L148.12,206.21L151.65,219.18L152.13,221.34L158.45,249.43L175.47,249.43" style="vector-effect: non-scaling-stroke; fill: none; stroke: rgb(0, 0, 0); stroke-opacity: 0.5; stroke-width: 1px; opacity: 1;"/></g><g class="points"/><g class="text"/></g></g></g><g class="overplot"/><path class="xlines-above crisp" d="M94.88145231846019,420.9322506561679H646.0629921259842" style="fill: none; stroke-width: 1px; stroke: rgb(0, 0, 0); stroke-opacity: 1;"/><path class="ylines-above crisp" d="M95.38145231846019,82.79691601049865V420.4322506561679" style="fill: none; stroke-width: 1px; stroke: rgb(0, 0, 0); stroke-opacity: 1;"/><g class="overlines-above"/><g class="xaxislayer-above"><path class="xtick ticks crisp" d="M0,420.4322506561679v-5" transform="translate(154.70145231846018,0)" style="stroke: rgb(0, 0, 0); stroke-opacity: 1; stroke-width: 1px;"/><path class="xtick ticks crisp" d="M0,420.4322506561679v-5" transform="translate(262.8414523184602,0)" style="stroke: rgb(0, 0, 0); stroke-opacity: 1; stroke-width: 1px;"/><path class="xtick ticks crisp" d="M0,420.4322506561679v-5" transform="translate(370.97145231846014,0)" style="stroke: rgb(0, 0, 0); stroke-opacity: 1; stroke-width: 1px;"/><path class="xtick ticks crisp" d="M0,420.4322506561679v-5" transform="translate(479.10145231846025,0)" style="stroke: rgb(0, 0, 0); stroke-opacity: 1; stroke-width: 1px;"/><path class="xtick ticks crisp" d="M0,420.4322506561679v-5" transform="translate(587.2414523184602,0)" style="stroke: rgb(0, 0, 0); stroke-opacity: 1; stroke-width: 1px;"/><g class="xtick"><text text-anchor="middle" x="0" y="434.6322506561679" transform="translate(154.70145231846018,0)" style="font-family: sans-serif; font-size: 11px; fill: rgb(0, 0, 0); fill-opacity: 1; white-space: pre;">Cadzand</text></g><g class="xtick"><text text-anchor="middle" x="0" y="434.6322506561679" transform="translate(262.8414523184602,0)" style="font-family: sans-serif; font-size: 11px; fill: rgb(0, 0, 0); fill-opacity: 1; white-space: pre;">Vlissingen</text></g><g class="xtick"><text text-anchor="middle" x="0" y="434.6322506561679" transform="translate(370.97145231846014,0)" style="font-family: sans-serif; font-size: 11px; fill: rgb(0, 0, 0); fill-opacity: 1; white-space: pre;">Terneuzen</text></g><g class="xtick"><text text-anchor="middle" x="0" y="434.6322506561679" transform="translate(479.10145231846025,0)" style="font-family: sans-serif; font-size: 11px; fill: rgb(0, 0, 0); fill-opacity: 1; white-space: pre;">Hansweert</text></g><g class="xtick"><text text-anchor="middle" x="0" y="434.6322506561679" transform="translate(587.2414523184602,0)" style="font-family: sans-serif; font-size: 11px; fill: rgb(0, 0, 0); fill-opacity: 1; white-space: pre;">Bath</text></g></g><g class="yaxislayer-above"><path class="ytick ticks crisp" d="M95.88145231846019,0h5" transform="translate(0,379.35691601049865)" style="stroke: rgb(0, 0, 0); stroke-opacity: 1; stroke-width: 1px;"/><path class="ytick ticks crisp" d="M95.88145231846019,0h5" transform="translate(0,333.5869160104986)" style="stroke: rgb(0, 0, 0); stroke-opacity: 1; stroke-width: 1px;"/><path class="ytick ticks crisp" d="M95.88145231846019,0h5" transform="translate(0,287.81691601049863)" style="stroke: rgb(0, 0, 0); stroke-opacity: 1; stroke-width: 1px;"/><path class="ytick ticks crisp" d="M95.88145231846019,0h5" transform="translate(0,242.04691601049865)" style="stroke: rgb(0, 0, 0); stroke-opacity: 1; stroke-width: 1px;"/><path class="ytick ticks crisp" d="M95.88145231846019,0h5" transform="translate(0,196.26691601049865)" style="stroke: rgb(0, 0, 0); stroke-opacity: 1; stroke-width: 1px;"/><path class="ytick ticks crisp" d="M95.88145231846019,0h5" transform="translate(0,150.49691601049864)" style="stroke: rgb(0, 0, 0); stroke-opacity: 1; stroke-width: 1px;"/><path class="ytick ticks crisp" d="M95.88145231846019,0h5" transform="translate(0,104.72691601049866)" style="stroke: rgb(0, 0, 0); stroke-opacity: 1; stroke-width: 1px;"/><g class="ytick"><text text-anchor="end" x="92.68145231846019" y="3.8499999999999996" transform="translate(0,379.35691601049865)" style="font-family: sans-serif; font-size: 11px; fill: rgb(0, 0, 0); fill-opacity: 1; white-space: pre;">0.1</text></g><g class="ytick"><text text-anchor="end" x="92.68145231846019" y="3.8499999999999996" transform="translate(0,333.5869160104986)" style="font-family: sans-serif; font-size: 11px; fill: rgb(0, 0, 0); fill-opacity: 1; white-space: pre;">0.2</text></g><g class="ytick"><text text-anchor="end" x="92.68145231846019" y="3.8499999999999996" transform="translate(0,287.81691601049863)" style="font-family: sans-serif; font-size: 11px; fill: rgb(0, 0, 0); fill-opacity: 1; white-space: pre;">0.3</text></g><g class="ytick"><text text-anchor="end" x="92.68145231846019" y="3.8499999999999996" transform="translate(0,242.04691601049865)" style="font-family: sans-serif; font-size: 11px; fill: rgb(0, 0, 0); fill-opacity: 1; white-space: pre;">0.4</text></g><g class="ytick"><text text-anchor="end" x="92.68145231846019" y="3.8499999999999996" transform="translate(0,196.26691601049865)" style="font-family: sans-serif; font-size: 11px; fill: rgb(0, 0, 0); fill-opacity: 1; white-space: pre;">0.5</text></g><g class="ytick"><text text-anchor="end" x="92.68145231846019" y="3.8499999999999996" transform="translate(0,150.49691601049864)" style="font-family: sans-serif; font-size: 11px; fill: rgb(0, 0, 0); fill-opacity: 1; white-space: pre;">0.6</text></g><g class="ytick"><text text-anchor="end" x="92.68145231846019" y="3.8499999999999996" transform="translate(0,104.72691601049866)" style="font-family: sans-serif; font-size: 11px; fill: rgb(0, 0, 0); fill-opacity: 1; white-space: pre;">0.7</text></g></g><g class="overaxes-above"/></g></g><g class="polarlayer"/><g class="ternarylayer"/><g class="geolayer"/><g class="funnelarealayer"/><g class="pielayer"/><g class="treemaplayer"/><g class="sunburstlayer"/><g class="glimages"/><defs id="topdefs-927758"><g class="clips"/></defs><g class="layer-above"><g class="imagelayer"/><g class="shapelayer"/></g><g class="infolayer"><g class="g-gtitle"/><g class="g-xtitle"><text class="xtitle" x="370.9722222222222" y="462.640625" text-anchor="middle" style="font-family: sans-serif; font-size: 15px; fill: rgb(0, 0, 0); opacity: 1; font-weight: normal; white-space: pre;">Location</text></g><g class="g-ytitle"><text class="ytitle" transform="rotate(-90,51.875,251.6145833333333)" x="51.875" y="251.6145833333333" text-anchor="middle" style="font-family: sans-serif; font-size: 15px; fill: rgb(0, 0, 0); opacity: 1; font-weight: normal; white-space: pre;">RMSE</text></g><g class="annotation" data-index="0" style="opacity: 1;"><g class="annotation-text-g" transform="rotate(0,370.9722222222223,73)"><g class="cursor-pointer" transform="translate(340,60)"><rect class="bg" x="0.5" y="0.5" width="61" height="25" style="stroke-width: 1px; stroke: rgb(0, 0, 0); stroke-opacity: 0; fill: rgb(0, 0, 0); fill-opacity: 0;"/><text class="annotation-text" text-anchor="middle" x="30.90625" y="20" style="font-family: sans-serif; font-size: 20px; fill: rgb(0, 0, 0); fill-opacity: 1; white-space: pre;">RMSE</text></g></g></g></g></svg>